<svg width="1705" height="1705" viewBox="0 0 1705 1705" fill="none" xmlns="http://www.w3.org/2000/svg">
<g id="venus">
<circle id="planet" cx="852.5" cy="860.5" r="496.5" fill="#FFB240"/>
<g id="orbit" filter="url(#filter0_f_7_303)">
<circle cx="852.5" cy="852.5" r="684.5" fill="#B4B4B4" fill-opacity="0.33"/>
</g>
<g id="planet_masl">
<mask id="mask0_7_303" style="mask-type:alpha" maskUnits="userSpaceOnUse" x="356" y="364" width="993" height="993">
<circle id="mask planet" cx="852.5" cy="860.5" r="496.5" fill="#564F3E"/>
</mask>
<g mask="url(#mask0_7_303)">
<g id="upper-rightclous" filter="url(#filter1_d_7_303)">
<path id="upper-rightclous_union" fill-rule="evenodd" clip-rule="evenodd" d="M829 537.798C829 513.609 848.609 494 872.798 494H1461.8C1485.99 494 1505.59 513.609 1505.59 537.798C1505.59 552.871 1497.98 566.165 1486.39 574.045H1534.2C1558.39 574.045 1578 593.654 1578 617.844C1578 642.033 1558.39 661.642 1534.2 661.642H1528.59C1534.75 669.188 1538.45 678.827 1538.45 689.331C1538.45 713.52 1518.84 733.129 1494.65 733.129H1364.51C1368.7 739.847 1371.13 747.784 1371.13 756.287C1371.13 762.36 1369.89 768.145 1367.66 773.403H1494.65C1518.84 773.403 1538.45 793.012 1538.45 817.202C1538.45 841.391 1518.84 861 1494.65 861H1173.98C1149.79 861 1130.18 841.391 1130.18 817.202C1130.18 811.128 1131.42 805.343 1133.65 800.085H1006.66C982.468 800.085 962.859 780.476 962.859 756.287C962.859 747.784 965.281 739.847 969.475 733.129H905.654C881.465 733.129 861.856 713.52 861.856 689.331C861.856 665.141 881.465 645.532 905.654 645.532H972.719C966.556 637.986 962.859 628.347 962.859 617.844C962.859 602.771 970.472 589.477 982.064 581.597H872.798C848.609 581.597 829 561.988 829 537.798Z" fill="#F9ED85" fill-opacity="0.76"/>
</g>
<g id="clouds" filter="url(#filter2_d_7_303)">
<path id="Union" fill-rule="evenodd" clip-rule="evenodd" d="M974 537.798C974 513.609 993.609 494 1017.8 494H1606.8C1630.99 494 1650.59 513.609 1650.59 537.798C1650.59 552.871 1642.98 566.165 1631.39 574.045H1679.2C1703.39 574.045 1723 593.654 1723 617.844C1723 642.033 1703.39 661.642 1679.2 661.642H1673.59C1679.75 669.188 1683.45 678.827 1683.45 689.331C1683.45 713.52 1663.84 733.129 1639.65 733.129H1509.51C1513.7 739.847 1516.13 747.784 1516.13 756.287C1516.13 762.36 1514.89 768.145 1512.66 773.403H1639.65C1663.84 773.403 1683.45 793.012 1683.45 817.202C1683.45 841.391 1663.84 861 1639.65 861H1318.98C1294.79 861 1275.18 841.391 1275.18 817.202C1275.18 811.128 1276.42 805.343 1278.65 800.085H1151.66C1127.47 800.085 1107.86 780.476 1107.86 756.287C1107.86 747.784 1110.28 739.847 1114.47 733.129H1050.65C1026.47 733.129 1006.86 713.52 1006.86 689.331C1006.86 665.141 1026.47 645.532 1050.65 645.532H1117.72C1111.56 637.986 1107.86 628.347 1107.86 617.844C1107.86 602.771 1115.47 589.477 1127.06 581.597H1017.8C993.609 581.597 974 561.988 974 537.798Z" fill="#FDF8CB" fill-opacity="0.76"/>
</g>
<g id="clouds_2" filter="url(#filter3_d_7_303)">
<path id="Union_2" fill-rule="evenodd" clip-rule="evenodd" d="M678 1073.8C678 1049.61 697.609 1030 721.798 1030H1310.8C1334.99 1030 1354.59 1049.61 1354.59 1073.8C1354.59 1088.87 1346.98 1102.17 1335.39 1110.05H1383.2C1407.39 1110.05 1427 1129.65 1427 1153.84C1427 1178.03 1407.39 1197.64 1383.2 1197.64H1377.59C1383.75 1205.19 1387.45 1214.83 1387.45 1225.33C1387.45 1249.52 1367.84 1269.13 1343.65 1269.13H1213.51C1217.7 1275.85 1220.13 1283.78 1220.13 1292.29C1220.13 1298.36 1218.89 1304.15 1216.66 1309.4H1343.65C1367.84 1309.4 1387.45 1329.01 1387.45 1353.2C1387.45 1377.39 1367.84 1397 1343.65 1397H1022.98C998.791 1397 979.182 1377.39 979.182 1353.2C979.182 1347.13 980.418 1341.34 982.653 1336.09H855.657C831.468 1336.09 811.859 1316.48 811.859 1292.29C811.859 1283.78 814.282 1275.85 818.475 1269.13H754.654C730.465 1269.13 710.856 1249.52 710.856 1225.33C710.856 1201.14 730.465 1181.53 754.654 1181.53H821.719C815.556 1173.99 811.859 1164.35 811.859 1153.84C811.859 1138.77 819.472 1125.48 831.064 1117.6H721.798C697.609 1117.6 678 1097.99 678 1073.8Z" fill="#F9ED85" fill-opacity="0.75"/>
</g>
<g id="clouds_3" filter="url(#filter4_d_7_303)">
<path id="Union_3" fill-rule="evenodd" clip-rule="evenodd" d="M865 1076.8C865 1052.61 884.609 1033 908.798 1033H1497.8C1521.99 1033 1541.59 1052.61 1541.59 1076.8C1541.59 1091.87 1533.98 1105.17 1522.39 1113.05H1570.2C1594.39 1113.05 1614 1132.65 1614 1156.84C1614 1181.03 1594.39 1200.64 1570.2 1200.64H1564.59C1570.75 1208.19 1574.45 1217.83 1574.45 1228.33C1574.45 1252.52 1554.84 1272.13 1530.65 1272.13H1400.51C1404.7 1278.85 1407.13 1286.78 1407.13 1295.29C1407.13 1301.36 1405.89 1307.15 1403.66 1312.4H1530.65C1554.84 1312.4 1574.45 1332.01 1574.45 1356.2C1574.45 1380.39 1554.84 1400 1530.65 1400H1209.98C1185.79 1400 1166.18 1380.39 1166.18 1356.2C1166.18 1350.13 1167.42 1344.34 1169.65 1339.09H1042.66C1018.47 1339.09 998.859 1319.48 998.859 1295.29C998.859 1286.78 1001.28 1278.85 1005.47 1272.13H941.654C917.465 1272.13 897.856 1252.52 897.856 1228.33C897.856 1204.14 917.465 1184.53 941.654 1184.53H1008.72C1002.56 1176.99 998.859 1167.35 998.859 1156.84C998.859 1141.77 1006.47 1128.48 1018.06 1120.6H908.798C884.609 1120.6 865 1100.99 865 1076.8Z" fill="#FDF8CB" fill-opacity="0.75"/>
</g>
<g id="clouds_4">
<path id="Union_4" fill-rule="evenodd" clip-rule="evenodd" d="M785.353 952.725C785.142 976.914 765.363 996.351 741.175 996.14L152.199 991C128.011 990.789 108.574 971.009 108.785 946.821C108.916 931.749 116.646 918.522 128.305 910.743L80.4952 910.326C56.307 910.115 36.8696 890.335 37.0807 866.147C37.2918 841.959 57.0713 822.521 81.2596 822.733L86.8712 822.782C80.7734 815.182 77.1606 805.511 77.2523 795.008C77.4633 770.82 97.2429 751.382 121.431 751.593L251.567 752.729C247.433 745.975 245.079 738.017 245.153 729.515C245.206 723.441 246.493 717.667 248.773 712.429L121.782 711.321C97.5941 711.11 78.1567 691.33 78.3678 667.142C78.5789 642.954 98.3585 623.516 122.547 623.727L443.207 626.526C467.395 626.737 486.832 646.516 486.621 670.705C486.568 676.778 485.281 682.552 483.001 687.79L609.992 688.898C634.18 689.11 653.618 708.889 653.407 733.077C653.332 741.58 650.84 749.495 646.589 756.176L710.406 756.733C734.595 756.944 754.032 776.724 753.821 800.912C753.61 825.101 733.83 844.538 709.642 844.327L642.58 843.741C648.677 851.341 652.29 861.012 652.198 871.515C652.067 886.587 644.337 899.815 632.678 907.593L741.939 908.547C766.127 908.758 785.564 928.537 785.353 952.725Z" fill="#FDF8CB"/>
</g>
<g id="clouds_5" filter="url(#filter5_d_7_303)">
<path id="Union_5" fill-rule="evenodd" clip-rule="evenodd" d="M785.353 952.725C785.142 976.914 765.363 996.351 741.175 996.14L152.199 991C128.011 990.789 108.574 971.009 108.785 946.821C108.916 931.749 116.646 918.522 128.305 910.743L80.4952 910.326C56.307 910.115 36.8696 890.335 37.0807 866.147C37.2918 841.959 57.0713 822.521 81.2596 822.733L86.8712 822.782C80.7734 815.182 77.1606 805.511 77.2523 795.008C77.4633 770.82 97.2429 751.382 121.431 751.593L251.567 752.729C247.433 745.975 245.079 738.017 245.153 729.515C245.206 723.441 246.493 717.667 248.773 712.429L121.782 711.321C97.5941 711.11 78.1567 691.33 78.3678 667.142C78.5789 642.954 98.3585 623.516 122.547 623.727L443.207 626.526C467.395 626.737 486.832 646.516 486.621 670.705C486.568 676.778 485.281 682.552 483.001 687.79L609.992 688.898C634.18 689.11 653.618 708.889 653.407 733.077C653.332 741.58 650.84 749.495 646.589 756.176L710.406 756.733C734.595 756.944 754.032 776.724 753.821 800.912C753.61 825.101 733.83 844.538 709.642 844.327L642.58 843.741C648.677 851.341 652.29 861.012 652.198 871.515C652.067 886.587 644.337 899.815 632.678 907.593L741.939 908.547C766.127 908.758 785.564 928.537 785.353 952.725Z" fill="#FDF8CB" fill-opacity="0.76"/>
</g>
<g id="clouds_6" filter="url(#filter6_d_7_303)">
<path id="Union_6" fill-rule="evenodd" clip-rule="evenodd" d="M894.353 952.725C894.142 976.914 874.363 996.351 850.175 996.14L261.199 991C237.011 990.789 217.574 971.009 217.785 946.821C217.916 931.749 225.646 918.522 237.305 910.743L189.495 910.326C165.307 910.115 145.87 890.335 146.081 866.147C146.292 841.959 166.071 822.521 190.26 822.733L195.871 822.782C189.773 815.182 186.161 805.511 186.252 795.008C186.463 770.82 206.243 751.382 230.431 751.593L360.567 752.729C356.433 745.975 354.079 738.017 354.153 729.515C354.206 723.441 355.493 717.667 357.773 712.429L230.782 711.321C206.594 711.11 187.157 691.33 187.368 667.142C187.579 642.954 207.358 623.516 231.547 623.727L552.207 626.526C576.395 626.737 595.832 646.516 595.621 670.705C595.568 676.778 594.281 682.552 592.001 687.79L718.992 688.898C743.18 689.11 762.618 708.889 762.407 733.077C762.332 741.58 759.84 749.495 755.589 756.176L819.406 756.733C843.595 756.944 863.032 776.724 862.821 800.912C862.61 825.101 842.83 844.538 818.642 844.327L751.58 843.741C757.677 851.341 761.29 861.012 761.198 871.515C761.067 886.587 753.337 899.815 741.678 907.593L850.939 908.547C875.127 908.758 894.564 928.537 894.353 952.725Z" fill="#F9ED85" fill-opacity="0.76"/>
</g>
</g>
</g>
<path id="shadow" fill-rule="evenodd" clip-rule="evenodd" d="M904 366.639C653.99 392.404 459 603.681 459 860.5C459 1117.32 653.99 1328.6 904 1354.36C887.071 1356.11 869.89 1357 852.5 1357C578.291 1357 356 1134.71 356 860.5C356 586.291 578.291 364 852.5 364C869.89 364 887.071 364.894 904 366.639Z" fill="black" fill-opacity="0.4"/>
<circle id="planet_2" cx="852.5" cy="860.5" r="496.5" fill="url(#paint0_linear_7_303)"/>
</g>
<defs>
<filter id="filter0_f_7_303" x="0" y="0" width="1705" height="1705" filterUnits="userSpaceOnUse" color-interpolation-filters="sRGB">
<feFlood flood-opacity="0" result="BackgroundImageFix"/>
<feBlend mode="normal" in="SourceGraphic" in2="BackgroundImageFix" result="shape"/>
<feGaussianBlur stdDeviation="84" result="effect1_foregroundBlur_7_303"/>
</filter>
<filter id="filter1_d_7_303" x="701" y="378" width="989" height="607" filterUnits="userSpaceOnUse" color-interpolation-filters="sRGB">
<feFlood flood-opacity="0" result="BackgroundImageFix"/>
<feColorMatrix in="SourceAlpha" type="matrix" values="0 0 0 0 0 0 0 0 0 0 0 0 0 0 0 0 0 0 127 0" result="hardAlpha"/>
<feOffset dx="-8" dy="4"/>
<feGaussianBlur stdDeviation="60"/>
<feComposite in2="hardAlpha" operator="out"/>
<feColorMatrix type="matrix" values="0 0 0 0 0 0 0 0 0 0 0 0 0 0 0 0 0 0 0.25 0"/>
<feBlend mode="normal" in2="BackgroundImageFix" result="effect1_dropShadow_7_303"/>
<feBlend mode="normal" in="SourceGraphic" in2="effect1_dropShadow_7_303" result="shape"/>
</filter>
<filter id="filter2_d_7_303" x="931" y="469" width="807" height="425" filterUnits="userSpaceOnUse" color-interpolation-filters="sRGB">
<feFlood flood-opacity="0" result="BackgroundImageFix"/>
<feColorMatrix in="SourceAlpha" type="matrix" values="0 0 0 0 0 0 0 0 0 0 0 0 0 0 0 0 0 0 127 0" result="hardAlpha"/>
<feOffset dx="-14" dy="4"/>
<feGaussianBlur stdDeviation="14.5"/>
<feComposite in2="hardAlpha" operator="out"/>
<feColorMatrix type="matrix" values="0 0 0 0 0 0 0 0 0 0 0 0 0 0 0 0 0 0 0.25 0"/>
<feBlend mode="normal" in2="BackgroundImageFix" result="effect1_dropShadow_7_303"/>
<feBlend mode="normal" in="SourceGraphic" in2="effect1_dropShadow_7_303" result="shape"/>
</filter>
<filter id="filter3_d_7_303" x="566" y="955" width="907" height="525" filterUnits="userSpaceOnUse" color-interpolation-filters="sRGB">
<feFlood flood-opacity="0" result="BackgroundImageFix"/>
<feColorMatrix in="SourceAlpha" type="matrix" values="0 0 0 0 0 0 0 0 0 0 0 0 0 0 0 0 0 0 127 0" result="hardAlpha"/>
<feOffset dx="-33" dy="4"/>
<feGaussianBlur stdDeviation="39.5"/>
<feComposite in2="hardAlpha" operator="out"/>
<feColorMatrix type="matrix" values="0 0 0 0 0 0 0 0 0 0 0 0 0 0 0 0 0 0 0.25 0"/>
<feBlend mode="normal" in2="BackgroundImageFix" result="effect1_dropShadow_7_303"/>
<feBlend mode="normal" in="SourceGraphic" in2="effect1_dropShadow_7_303" result="shape"/>
</filter>
<filter id="filter4_d_7_303" x="751" y="953" width="917" height="535" filterUnits="userSpaceOnUse" color-interpolation-filters="sRGB">
<feFlood flood-opacity="0" result="BackgroundImageFix"/>
<feColorMatrix in="SourceAlpha" type="matrix" values="0 0 0 0 0 0 0 0 0 0 0 0 0 0 0 0 0 0 127 0" result="hardAlpha"/>
<feOffset dx="-30" dy="4"/>
<feGaussianBlur stdDeviation="42"/>
<feComposite in2="hardAlpha" operator="out"/>
<feColorMatrix type="matrix" values="0 0 0 0 0 0 0 0 0 0 0 0 0 0 0 0 0 0 0.25 0"/>
<feBlend mode="normal" in2="BackgroundImageFix" result="effect1_dropShadow_7_303"/>
<feBlend mode="normal" in="SourceGraphic" in2="effect1_dropShadow_7_303" result="shape"/>
</filter>
<filter id="filter5_d_7_303" x="-19.9209" y="549.726" width="896.276" height="520.416" filterUnits="userSpaceOnUse" color-interpolation-filters="sRGB">
<feFlood flood-opacity="0" result="BackgroundImageFix"/>
<feColorMatrix in="SourceAlpha" type="matrix" values="0 0 0 0 0 0 0 0 0 0 0 0 0 0 0 0 0 0 127 0" result="hardAlpha"/>
<feOffset dx="17"/>
<feGaussianBlur stdDeviation="37"/>
<feComposite in2="hardAlpha" operator="out"/>
<feColorMatrix type="matrix" values="0 0 0 0 0 0 0 0 0 0 0 0 0 0 0 0 0 0 0.25 0"/>
<feBlend mode="normal" in2="BackgroundImageFix" result="effect1_dropShadow_7_303"/>
<feBlend mode="normal" in="SourceGraphic" in2="effect1_dropShadow_7_303" result="shape"/>
</filter>
<filter id="filter6_d_7_303" x="80.0791" y="548.726" width="906.276" height="530.416" filterUnits="userSpaceOnUse" color-interpolation-filters="sRGB">
<feFlood flood-opacity="0" result="BackgroundImageFix"/>
<feColorMatrix in="SourceAlpha" type="matrix" values="0 0 0 0 0 0 0 0 0 0 0 0 0 0 0 0 0 0 127 0" result="hardAlpha"/>
<feOffset dx="13" dy="4"/>
<feGaussianBlur stdDeviation="39.5"/>
<feComposite in2="hardAlpha" operator="out"/>
<feColorMatrix type="matrix" values="0 0 0 0 0 0 0 0 0 0 0 0 0 0 0 0 0 0 0.25 0"/>
<feBlend mode="normal" in2="BackgroundImageFix" result="effect1_dropShadow_7_303"/>
<feBlend mode="normal" in="SourceGraphic" in2="effect1_dropShadow_7_303" result="shape"/>
</filter>
<linearGradient id="paint0_linear_7_303" x1="1349" y1="364" x2="853" y2="364" gradientUnits="userSpaceOnUse">
<stop stop-color="#FD9700" stop-opacity="0.37"/>
<stop offset="1" stop-opacity="0.97"/>
</linearGradient>
</defs>
</svg>
