<svg width="1512" height="1512" viewBox="0 0 1512 1512" fill="none" xmlns="http://www.w3.org/2000/svg">
<g filter="url(#filter0_f_28_112)">
<circle cx="756" cy="756" r="696" fill="#717171" fill-opacity="0.2"/>
</g>
<g filter="url(#filter1_i_28_112)">
<circle cx="755.5" cy="755.5" r="536.5" fill="#5F7EEC"/>
<mask id="mask0_28_112" style="mask-type:alpha" maskUnits="userSpaceOnUse" x="219" y="219" width="1073" height="1073">
<circle cx="755.5" cy="755.5" r="536.5" fill="#5F7EEC"/>
</mask>
<g mask="url(#mask0_28_112)">
<mask id="path-4-inside-1_28_112" fill="white">
<path fill-rule="evenodd" clip-rule="evenodd" d="M199.974 647.216C199.974 596.839 240.813 556 291.19 556H529.931C580.308 556 621.147 596.839 621.147 647.216C621.147 654.602 620.269 661.783 618.612 668.66H711.958C762.336 668.66 803.175 709.499 803.175 759.876C803.175 778.178 797.784 795.222 788.504 809.505C814.6 825.555 832 854.375 832 887.258C832 937.635 791.161 978.474 740.784 978.474H641.505C647.607 990.713 651.04 1004.52 651.04 1019.12C651.04 1032.47 648.174 1045.14 643.024 1056.57H659.646C710.023 1056.57 750.862 1097.41 750.862 1147.78C750.862 1198.16 710.023 1239 659.646 1239H144.927C94.5499 1239 53.711 1198.16 53.711 1147.78C53.711 1134.44 56.5771 1121.76 61.7272 1110.34H45.1054C-5.2718 1110.34 -46.1107 1069.5 -46.1107 1019.12C-46.1107 1004.52 -42.6782 990.713 -36.576 978.474H-55.784C-106.161 978.474 -147 937.635 -147 887.258C-147 836.881 -106.161 796.042 -55.784 796.042H113.475C108.681 784.953 106.024 772.725 106.024 759.876C106.024 709.499 146.863 668.66 197.24 668.66H202.509C200.852 661.783 199.974 654.602 199.974 647.216Z"/>
</mask>
<path fill-rule="evenodd" clip-rule="evenodd" d="M199.974 647.216C199.974 596.839 240.813 556 291.19 556H529.931C580.308 556 621.147 596.839 621.147 647.216C621.147 654.602 620.269 661.783 618.612 668.66H711.958C762.336 668.66 803.175 709.499 803.175 759.876C803.175 778.178 797.784 795.222 788.504 809.505C814.6 825.555 832 854.375 832 887.258C832 937.635 791.161 978.474 740.784 978.474H641.505C647.607 990.713 651.04 1004.52 651.04 1019.12C651.04 1032.47 648.174 1045.14 643.024 1056.57H659.646C710.023 1056.57 750.862 1097.41 750.862 1147.78C750.862 1198.16 710.023 1239 659.646 1239H144.927C94.5499 1239 53.711 1198.16 53.711 1147.78C53.711 1134.44 56.5771 1121.76 61.7272 1110.34H45.1054C-5.2718 1110.34 -46.1107 1069.5 -46.1107 1019.12C-46.1107 1004.52 -42.6782 990.713 -36.576 978.474H-55.784C-106.161 978.474 -147 937.635 -147 887.258C-147 836.881 -106.161 796.042 -55.784 796.042H113.475C108.681 784.953 106.024 772.725 106.024 759.876C106.024 709.499 146.863 668.66 197.24 668.66H202.509C200.852 661.783 199.974 654.602 199.974 647.216Z" fill="#4E9B12"/>
<path d="M618.612 668.66L590.419 661.867L581.795 697.66H618.612V668.66ZM788.504 809.505L764.186 793.706L747.99 818.634L773.311 834.207L788.504 809.505ZM641.505 978.474V949.474H594.641L615.552 991.414L641.505 978.474ZM643.024 1056.57L616.586 1044.65L598.141 1085.57H643.024V1056.57ZM61.7272 1110.34L88.1652 1122.26L106.61 1081.34H61.7272V1110.34ZM-36.576 978.474L-10.623 991.414L10.288 949.474H-36.576V978.474ZM113.475 796.042V825.042H157.607L140.094 784.534L113.475 796.042ZM202.509 668.66V697.66H239.326L230.702 661.867L202.509 668.66ZM291.19 527C224.796 527 170.974 580.823 170.974 647.216H228.974C228.974 612.855 256.829 585 291.19 585V527ZM529.931 527H291.19V585H529.931V527ZM650.147 647.216C650.147 580.823 596.324 527 529.931 527V585C564.292 585 592.147 612.855 592.147 647.216H650.147ZM646.805 675.453C648.994 666.368 650.147 656.907 650.147 647.216H592.147C592.147 652.296 591.544 657.198 590.419 661.867L646.805 675.453ZM711.958 639.66H618.612V697.66H711.958V639.66ZM832.175 759.876C832.175 693.482 778.352 639.66 711.958 639.66V697.66C746.319 697.66 774.175 725.515 774.175 759.876H832.175ZM812.822 825.305C825.065 806.461 832.175 783.954 832.175 759.876H774.175C774.175 772.402 770.503 783.983 764.186 793.706L812.822 825.305ZM773.311 834.207C791.186 845.201 803 864.862 803 887.258H861C861 843.887 838.013 805.91 803.697 784.804L773.311 834.207ZM803 887.258C803 921.619 775.145 949.474 740.784 949.474V1007.47C807.177 1007.47 861 953.652 861 887.258H803ZM740.784 949.474H641.505V1007.47H740.784V949.474ZM615.552 991.414C619.696 999.724 622.04 1009.11 622.04 1019.12H680.04C680.04 999.925 675.519 981.702 667.458 965.534L615.552 991.414ZM622.04 1019.12C622.04 1028.28 620.08 1036.9 616.586 1044.65L669.462 1068.49C676.267 1053.39 680.04 1036.66 680.04 1019.12H622.04ZM643.024 1085.57H659.645V1027.57H643.024V1085.57ZM659.645 1085.57C694.006 1085.57 721.862 1113.42 721.862 1147.78H779.862C779.862 1081.39 726.039 1027.57 659.645 1027.57V1085.57ZM721.862 1147.78C721.862 1182.14 694.007 1210 659.646 1210V1268C726.039 1268 779.862 1214.18 779.862 1147.78H721.862ZM659.646 1210H144.927V1268H659.646V1210ZM144.927 1210C110.566 1210 82.711 1182.14 82.711 1147.78H24.711C24.711 1214.18 78.5337 1268 144.927 1268V1210ZM82.711 1147.78C82.711 1138.63 84.6704 1130.01 88.1652 1122.26L35.2892 1098.42C28.4837 1113.52 24.711 1130.25 24.711 1147.78H82.711ZM61.7272 1081.34H45.1054V1139.34H61.7272V1081.34ZM45.1054 1081.34C10.7444 1081.34 -17.1107 1053.48 -17.1107 1019.12H-75.1107C-75.1107 1085.51 -21.288 1139.34 45.1054 1139.34V1081.34ZM-17.1107 1019.12C-17.1107 1009.11 -14.7664 999.724 -10.623 991.414L-62.529 965.534C-70.59 981.702 -75.1107 999.925 -75.1107 1019.12H-17.1107ZM-36.576 949.474H-55.784V1007.47H-36.576V949.474ZM-55.784 949.474C-90.1449 949.474 -118 921.619 -118 887.258H-176C-176 953.652 -122.177 1007.47 -55.784 1007.47V949.474ZM-118 887.258C-118 852.897 -90.1449 825.042 -55.784 825.042V767.042C-122.177 767.042 -176 820.865 -176 887.258H-118ZM-55.784 825.042H113.475V767.042H-55.784V825.042ZM77.024 759.876C77.024 776.757 80.5205 792.896 86.8562 807.551L140.094 784.534C136.841 777.011 135.024 768.693 135.024 759.876H77.024ZM197.24 639.66C130.847 639.66 77.024 693.482 77.024 759.876H135.024C135.024 725.515 162.879 697.66 197.24 697.66V639.66ZM202.509 639.66H197.24V697.66H202.509V639.66ZM170.974 647.216C170.974 656.907 172.126 666.368 174.315 675.453L230.702 661.867C229.577 657.197 228.974 652.296 228.974 647.216H170.974Z" fill="#1A62A4" fill-opacity="0.74" mask="url(#path-4-inside-1_28_112)"/>
<mask id="path-6-inside-2_28_112" fill="white">
<path fill-rule="evenodd" clip-rule="evenodd" d="M1130.97 164.216C1130.97 113.839 1171.81 73 1222.19 73H1460.93C1511.31 73 1552.15 113.839 1552.15 164.216C1552.15 171.602 1551.27 178.783 1549.61 185.66H1642.96C1693.34 185.66 1734.17 226.499 1734.17 276.876C1734.17 295.178 1728.78 312.222 1719.5 326.505C1745.6 342.555 1763 371.375 1763 404.258C1763 454.635 1722.16 495.474 1671.78 495.474H1572.51C1578.61 507.713 1582.04 521.516 1582.04 536.121C1582.04 549.467 1579.17 562.143 1574.02 573.568H1590.65C1641.02 573.568 1681.86 614.407 1681.86 664.784C1681.86 715.161 1641.02 756 1590.65 756H1075.93C1025.55 756 984.711 715.161 984.711 664.784C984.711 651.438 987.577 638.762 992.727 627.337H976.105C925.728 627.337 884.889 586.499 884.889 536.121C884.889 521.516 888.322 507.713 894.424 495.474H875.216C824.839 495.474 784 454.635 784 404.258C784 353.881 824.839 313.042 875.216 313.042H1044.47C1039.68 301.953 1037.02 289.725 1037.02 276.876C1037.02 226.499 1077.86 185.66 1128.24 185.66H1133.51C1131.85 178.783 1130.97 171.602 1130.97 164.216Z"/>
</mask>
<path fill-rule="evenodd" clip-rule="evenodd" d="M1130.97 164.216C1130.97 113.839 1171.81 73 1222.19 73H1460.93C1511.31 73 1552.15 113.839 1552.15 164.216C1552.15 171.602 1551.27 178.783 1549.61 185.66H1642.96C1693.34 185.66 1734.17 226.499 1734.17 276.876C1734.17 295.178 1728.78 312.222 1719.5 326.505C1745.6 342.555 1763 371.375 1763 404.258C1763 454.635 1722.16 495.474 1671.78 495.474H1572.51C1578.61 507.713 1582.04 521.516 1582.04 536.121C1582.04 549.467 1579.17 562.143 1574.02 573.568H1590.65C1641.02 573.568 1681.86 614.407 1681.86 664.784C1681.86 715.161 1641.02 756 1590.65 756H1075.93C1025.55 756 984.711 715.161 984.711 664.784C984.711 651.438 987.577 638.762 992.727 627.337H976.105C925.728 627.337 884.889 586.499 884.889 536.121C884.889 521.516 888.322 507.713 894.424 495.474H875.216C824.839 495.474 784 454.635 784 404.258C784 353.881 824.839 313.042 875.216 313.042H1044.47C1039.68 301.953 1037.02 289.725 1037.02 276.876C1037.02 226.499 1077.86 185.66 1128.24 185.66H1133.51C1131.85 178.783 1130.97 171.602 1130.97 164.216Z" fill="#4E9B12"/>
<path d="M1549.61 185.66L1531.14 181.209L1525.49 204.66H1549.61V185.66ZM1719.5 326.505L1703.57 316.154L1692.96 332.486L1709.55 342.689L1719.5 326.505ZM1572.51 495.474V476.474H1541.8L1555.5 503.952L1572.51 495.474ZM1574.02 573.568L1556.7 565.76L1544.62 592.568H1574.02V573.568ZM992.727 627.337L1010.05 635.146L1022.13 608.337H992.727V627.337ZM894.424 495.474L911.428 503.952L925.128 476.474H894.424V495.474ZM1044.47 313.042V332.042H1073.39L1061.91 305.502L1044.47 313.042ZM1133.51 185.66V204.66H1157.63L1151.98 181.209L1133.51 185.66ZM1222.19 54C1161.32 54 1111.97 103.345 1111.97 164.216H1149.97C1149.97 124.332 1182.31 92 1222.19 92V54ZM1460.93 54H1222.19V92H1460.93V54ZM1571.15 164.216C1571.15 103.345 1521.8 54 1460.93 54V92C1500.81 92 1533.15 124.332 1533.15 164.216H1571.15ZM1568.08 190.11C1570.09 181.787 1571.15 173.112 1571.15 164.216H1533.15C1533.15 170.091 1532.45 175.779 1531.14 181.209L1568.08 190.11ZM1642.96 166.66H1549.61V204.66H1642.96V166.66ZM1753.17 276.876C1753.17 216.005 1703.83 166.66 1642.96 166.66V204.66C1682.84 204.66 1715.17 236.992 1715.17 276.876H1753.17ZM1735.44 336.857C1746.66 319.585 1753.17 298.963 1753.17 276.876H1715.17C1715.17 291.394 1710.91 304.858 1703.57 316.154L1735.44 336.857ZM1709.55 342.689C1730.26 355.427 1744 378.246 1744 404.258H1782C1782 364.504 1760.94 329.684 1729.46 310.321L1709.55 342.689ZM1744 404.258C1744 444.142 1711.67 476.474 1671.78 476.474V514.474C1732.65 514.474 1782 465.129 1782 404.258H1744ZM1671.78 476.474H1572.51V514.474H1671.78V476.474ZM1555.5 503.952C1560.32 513.617 1563.04 524.524 1563.04 536.121H1601.04C1601.04 518.508 1596.89 501.809 1589.51 486.996L1555.5 503.952ZM1563.04 536.121C1563.04 546.722 1560.77 556.741 1556.7 565.76L1591.35 581.376C1597.58 567.545 1601.04 552.212 1601.04 536.121H1563.04ZM1574.02 592.568H1590.65V554.568H1574.02V592.568ZM1590.65 592.568C1630.53 592.568 1662.86 624.9 1662.86 664.784H1700.86C1700.86 603.913 1651.52 554.568 1590.65 554.568V592.568ZM1662.86 664.784C1662.86 704.668 1630.53 737 1590.65 737V775C1651.52 775 1700.86 725.655 1700.86 664.784H1662.86ZM1590.65 737H1075.93V775H1590.65V737ZM1075.93 737C1036.04 737 1003.71 704.668 1003.71 664.784H965.711C965.711 725.655 1015.06 775 1075.93 775V737ZM1003.71 664.784C1003.71 654.183 1005.98 644.164 1010.05 635.146L975.406 619.529C969.171 633.36 965.711 648.694 965.711 664.784H1003.71ZM992.727 608.337H976.105V646.337H992.727V608.337ZM976.105 608.337C936.222 608.337 903.889 576.005 903.889 536.121H865.889C865.889 596.992 915.235 646.337 976.105 646.337V608.337ZM903.889 536.121C903.889 524.524 906.609 513.617 911.428 503.952L877.42 486.996C870.035 501.809 865.889 518.508 865.889 536.121H903.889ZM894.424 476.474H875.216V514.474H894.424V476.474ZM875.216 476.474C835.332 476.474 803 444.142 803 404.258H765C765 465.129 814.345 514.474 875.216 514.474V476.474ZM803 404.258C803 364.374 835.332 332.042 875.216 332.042V294.042C814.345 294.042 765 343.388 765 404.258H803ZM875.216 332.042H1044.47V294.042H875.216V332.042ZM1018.02 276.876C1018.02 292.366 1021.23 307.157 1027.04 320.582L1061.91 305.502C1058.13 296.75 1056.02 287.084 1056.02 276.876H1018.02ZM1128.24 166.66C1067.37 166.66 1018.02 216.005 1018.02 276.876H1056.02C1056.02 236.992 1088.36 204.66 1128.24 204.66V166.66ZM1133.51 166.66H1128.24V204.66H1133.51V166.66ZM1111.97 164.216C1111.97 173.112 1113.03 181.787 1115.04 190.11L1151.98 181.209C1150.67 175.779 1149.97 170.091 1149.97 164.216H1111.97Z" fill="#1A62A4" fill-opacity="0.53" mask="url(#path-6-inside-2_28_112)"/>
<g filter="url(#filter2_d_28_112)">
<path fill-rule="evenodd" clip-rule="evenodd" d="M496.154 627.755C496.154 665.446 465.599 696 427.909 696H111.821C74.1301 696 43.5758 665.446 43.5758 627.755C43.5758 622.229 44.2326 616.857 45.4723 611.711L-83.78 611.711C-121.471 611.711 -152.025 581.157 -152.025 543.466C-152.025 531.365 -148.876 520 -143.352 510.145C-166.759 499.328 -183 475.642 -183 448.163C-183 410.472 -152.446 379.918 -114.755 379.918H18.5872C14.0217 370.761 11.4536 360.434 11.4536 349.507C11.4536 339.522 13.5979 330.038 17.451 321.49H-27.5663C-65.257 321.49 -95.8114 290.936 -95.8114 253.245C-95.8114 215.554 -65.257 185 -27.5663 185L585.078 185C622.768 185 653.323 215.554 653.323 253.245C653.323 263.23 651.179 272.714 647.325 281.261H692.343C730.033 281.261 760.588 311.816 760.588 349.507C760.588 360.434 758.02 370.761 753.454 379.918H800.755C838.446 379.918 869 410.472 869 448.163C869 485.853 838.446 516.408 800.755 516.408H591.535C595.121 524.704 597.109 533.853 597.109 543.466C597.109 581.157 566.555 611.711 528.864 611.711H494.257C495.497 616.857 496.154 622.229 496.154 627.755Z" fill="#B6B6B6"/>
</g>
<g filter="url(#filter3_d_28_112)">
<path fill-rule="evenodd" clip-rule="evenodd" d="M367.683 627.755C367.683 665.446 337.128 696 299.438 696H68.9611C31.2703 696 0.715942 665.446 0.715942 627.755C0.715942 622.229 1.37274 616.857 2.61243 611.711H-89.6394C-127.33 611.711 -157.884 581.157 -157.884 543.466C-157.884 530.415 -154.221 518.219 -147.866 507.852C-168.821 496.202 -183 473.838 -183 448.163C-183 410.472 -152.446 379.918 -114.755 379.918H-18.1964C-22.7618 370.761 -25.3299 360.434 -25.3299 349.507C-25.3299 339.522 -23.1856 330.038 -19.3325 321.49H-44.0592C-81.7499 321.49 -112.304 290.936 -112.304 253.245C-112.304 215.554 -81.7499 185 -44.0591 185L426.876 185C464.567 185 495.121 215.554 495.121 253.245C495.121 263.23 492.977 272.714 489.124 281.261H513.85C551.541 281.261 582.095 311.816 582.095 349.507C582.095 360.434 579.527 370.761 574.962 379.918H601.755C639.446 379.918 670 410.472 670 448.163C670 485.853 639.446 516.408 601.755 516.408H443.966C447.553 524.704 449.541 533.853 449.541 543.466C449.541 581.157 418.986 611.711 381.296 611.711H365.786C367.026 616.857 367.683 622.229 367.683 627.755Z" fill="#D9D9D9"/>
</g>
<g filter="url(#filter4_d_28_112)">
<path fill-rule="evenodd" clip-rule="evenodd" d="M1084.85 604.245C1084.85 566.554 1115.4 536 1153.09 536H1469.18C1506.87 536 1537.42 566.554 1537.42 604.245C1537.42 609.771 1536.77 615.143 1535.53 620.289H1664.78C1702.47 620.289 1733.03 650.843 1733.03 688.534C1733.03 700.635 1729.88 712 1724.35 721.855C1747.76 732.672 1764 756.358 1764 783.837C1764 821.528 1733.45 852.082 1695.75 852.082H1562.41C1566.98 861.239 1569.55 871.566 1569.55 882.493C1569.55 892.478 1567.4 901.962 1563.55 910.51H1608.57C1646.26 910.51 1676.81 941.064 1676.81 978.755C1676.81 1016.45 1646.26 1047 1608.57 1047H995.922C958.232 1047 927.677 1016.45 927.677 978.755C927.677 968.77 929.821 959.286 933.675 950.739H888.657C850.967 950.739 820.412 920.184 820.412 882.493C820.412 871.566 822.98 861.239 827.546 852.082H780.245C742.554 852.082 712 821.528 712 783.837C712 746.147 742.554 715.592 780.245 715.592H989.465C985.879 707.296 983.891 698.147 983.891 688.534C983.891 650.843 1014.45 620.289 1052.14 620.289H1086.74C1085.5 615.143 1084.85 609.771 1084.85 604.245Z" fill="#B6B6B6"/>
</g>
<g filter="url(#filter5_d_28_112)">
<path fill-rule="evenodd" clip-rule="evenodd" d="M1232.36 619.229C1232.36 587.07 1258.43 561 1290.59 561H1501.09C1533.24 561 1559.31 587.07 1559.31 619.229C1559.31 623.943 1558.75 628.527 1557.7 632.918H1642.39C1674.55 632.918 1700.62 658.987 1700.62 691.146C1700.62 702.119 1697.59 712.383 1692.31 721.145C1710.58 730.97 1723 750.265 1723 772.462C1723 804.621 1696.93 830.691 1664.77 830.691H1576.43C1580.33 838.504 1582.52 847.315 1582.52 856.638C1582.52 865.158 1580.69 873.249 1577.4 880.543H1601.78C1633.94 880.543 1660.01 906.612 1660.01 938.771C1660.01 970.93 1633.94 997 1601.78 997H1177.04C1144.88 997 1118.81 970.93 1118.81 938.771C1118.81 930.252 1120.64 922.16 1123.93 914.867H1099.55C1067.39 914.867 1041.32 888.797 1041.32 856.638C1041.32 847.315 1043.51 838.504 1047.41 830.691H1021.23C989.07 830.691 963 804.621 963 772.462C963 740.303 989.07 714.233 1021.23 714.233H1164.18C1161.12 707.155 1159.42 699.349 1159.42 691.146C1159.42 658.987 1185.49 632.918 1217.65 632.918H1233.97C1232.92 628.527 1232.36 623.943 1232.36 619.229Z" fill="#D9D9D9"/>
</g>
</g>
</g>
<g filter="url(#filter6_i_28_112)">
<circle cx="756" cy="756" r="540" fill="url(#paint0_linear_28_112)"/>
</g>
<defs>
<filter id="filter0_f_28_112" x="0" y="0" width="1512" height="1512" filterUnits="userSpaceOnUse" color-interpolation-filters="sRGB">
<feFlood flood-opacity="0" result="BackgroundImageFix"/>
<feBlend mode="normal" in="SourceGraphic" in2="BackgroundImageFix" result="shape"/>
<feGaussianBlur stdDeviation="30" result="effect1_foregroundBlur_28_112"/>
</filter>
<filter id="filter1_i_28_112" x="219" y="219" width="1073" height="1077" filterUnits="userSpaceOnUse" color-interpolation-filters="sRGB">
<feFlood flood-opacity="0" result="BackgroundImageFix"/>
<feBlend mode="normal" in="SourceGraphic" in2="BackgroundImageFix" result="shape"/>
<feColorMatrix in="SourceAlpha" type="matrix" values="0 0 0 0 0 0 0 0 0 0 0 0 0 0 0 0 0 0 127 0" result="hardAlpha"/>
<feOffset dy="4"/>
<feGaussianBlur stdDeviation="125"/>
<feComposite in2="hardAlpha" operator="arithmetic" k2="-1" k3="1"/>
<feColorMatrix type="matrix" values="0 0 0 0 0.988361 0 0 0 0 0.991667 0 0 0 0 0.826389 0 0 0 0.83 0"/>
<feBlend mode="normal" in2="shape" result="effect1_innerShadow_28_112"/>
</filter>
<filter id="filter2_d_28_112" x="-423" y="-61" width="1552" height="1011" filterUnits="userSpaceOnUse" color-interpolation-filters="sRGB">
<feFlood flood-opacity="0" result="BackgroundImageFix"/>
<feColorMatrix in="SourceAlpha" type="matrix" values="0 0 0 0 0 0 0 0 0 0 0 0 0 0 0 0 0 0 127 0" result="hardAlpha"/>
<feOffset dx="10" dy="4"/>
<feGaussianBlur stdDeviation="125"/>
<feComposite in2="hardAlpha" operator="out"/>
<feColorMatrix type="matrix" values="0 0 0 0 0 0 0 0 0 0 0 0 0 0 0 0 0 0 0.25 0"/>
<feBlend mode="normal" in2="BackgroundImageFix" result="effect1_dropShadow_28_112"/>
<feBlend mode="normal" in="SourceGraphic" in2="effect1_dropShadow_28_112" result="shape"/>
</filter>
<filter id="filter3_d_28_112" x="-423" y="-61" width="1353" height="1011" filterUnits="userSpaceOnUse" color-interpolation-filters="sRGB">
<feFlood flood-opacity="0" result="BackgroundImageFix"/>
<feColorMatrix in="SourceAlpha" type="matrix" values="0 0 0 0 0 0 0 0 0 0 0 0 0 0 0 0 0 0 127 0" result="hardAlpha"/>
<feOffset dx="10" dy="4"/>
<feGaussianBlur stdDeviation="125"/>
<feComposite in2="hardAlpha" operator="out"/>
<feColorMatrix type="matrix" values="0 0 0 0 0 0 0 0 0 0 0 0 0 0 0 0 0 0 0.25 0"/>
<feBlend mode="normal" in2="BackgroundImageFix" result="effect1_dropShadow_28_112"/>
<feBlend mode="normal" in="SourceGraphic" in2="effect1_dropShadow_28_112" result="shape"/>
</filter>
<filter id="filter4_d_28_112" x="467" y="290" width="1552" height="1011" filterUnits="userSpaceOnUse" color-interpolation-filters="sRGB">
<feFlood flood-opacity="0" result="BackgroundImageFix"/>
<feColorMatrix in="SourceAlpha" type="matrix" values="0 0 0 0 0 0 0 0 0 0 0 0 0 0 0 0 0 0 127 0" result="hardAlpha"/>
<feOffset dx="5" dy="4"/>
<feGaussianBlur stdDeviation="125"/>
<feComposite in2="hardAlpha" operator="out"/>
<feColorMatrix type="matrix" values="0 0 0 0 0 0 0 0 0 0 0 0 0 0 0 0 0 0 0.5 0"/>
<feBlend mode="normal" in2="BackgroundImageFix" result="effect1_dropShadow_28_112"/>
<feBlend mode="normal" in="SourceGraphic" in2="effect1_dropShadow_28_112" result="shape"/>
</filter>
<filter id="filter5_d_28_112" x="718" y="315" width="1260" height="936" filterUnits="userSpaceOnUse" color-interpolation-filters="sRGB">
<feFlood flood-opacity="0" result="BackgroundImageFix"/>
<feColorMatrix in="SourceAlpha" type="matrix" values="0 0 0 0 0 0 0 0 0 0 0 0 0 0 0 0 0 0 127 0" result="hardAlpha"/>
<feOffset dx="5" dy="4"/>
<feGaussianBlur stdDeviation="125"/>
<feComposite in2="hardAlpha" operator="out"/>
<feColorMatrix type="matrix" values="0 0 0 0 0 0 0 0 0 0 0 0 0 0 0 0 0 0 0.5 0"/>
<feBlend mode="normal" in2="BackgroundImageFix" result="effect1_dropShadow_28_112"/>
<feBlend mode="normal" in="SourceGraphic" in2="effect1_dropShadow_28_112" result="shape"/>
</filter>
<filter id="filter6_i_28_112" x="216" y="216" width="1080" height="1084" filterUnits="userSpaceOnUse" color-interpolation-filters="sRGB">
<feFlood flood-opacity="0" result="BackgroundImageFix"/>
<feBlend mode="normal" in="SourceGraphic" in2="BackgroundImageFix" result="shape"/>
<feColorMatrix in="SourceAlpha" type="matrix" values="0 0 0 0 0 0 0 0 0 0 0 0 0 0 0 0 0 0 127 0" result="hardAlpha"/>
<feOffset dy="4"/>
<feGaussianBlur stdDeviation="2"/>
<feComposite in2="hardAlpha" operator="arithmetic" k2="-1" k3="1"/>
<feColorMatrix type="matrix" values="0 0 0 0 0 0 0 0 0 0 0 0 0 0 0 0 0 0 0.25 0"/>
<feBlend mode="normal" in2="shape" result="effect1_innerShadow_28_112"/>
</filter>
<linearGradient id="paint0_linear_28_112" x1="720.268" y1="216" x2="1206.92" y2="216" gradientUnits="userSpaceOnUse">
<stop/>
<stop offset="1" stop-opacity="0"/>
</linearGradient>
</defs>
</svg>
