<svg width="1688" height="1688" viewBox="0 0 1688 1688" fill="none" xmlns="http://www.w3.org/2000/svg">
<circle cx="844" cy="855" r="468" fill="#F49D6C"/>
<g filter="url(#filter0_f_9_388)">
<circle cx="844" cy="844" r="605" fill="#A6A6A6" fill-opacity="0.2"/>
</g>
<mask id="mask0_9_388" style="mask-type:alpha" maskUnits="userSpaceOnUse" x="376" y="387" width="936" height="936">
<circle cx="844" cy="855" r="468" fill="#FF2424" fill-opacity="0.67"/>
</mask>
<g mask="url(#mask0_9_388)">
<path fill-rule="evenodd" clip-rule="evenodd" d="M1110.19 742.041C1110.19 717.718 1129.91 698 1154.23 698H1530.96C1555.28 698 1575 717.718 1575 742.041C1575 766.364 1555.28 786.082 1530.96 786.082H1459.25C1449.21 786.082 1442.41 797.493 1442.41 807.53C1442.41 811.15 1445.15 814.393 1448.77 814.393H1490.73C1515.05 814.393 1534.77 834.111 1534.77 858.434C1534.77 882.757 1515.05 902.475 1490.73 902.475C1482.67 902.475 1477.26 911.371 1477.92 919.396C1478.02 920.606 1478.08 921.83 1478.08 923.065C1478.08 947.389 1458.36 967.106 1434.03 967.106H1424.3C1414.58 967.106 1407.97 977.978 1407.97 987.697C1407.97 996.866 1414.25 1006.86 1423.42 1006.86H1506.88C1531.2 1006.86 1550.92 1026.58 1550.92 1050.9C1550.92 1075.22 1531.2 1094.94 1506.88 1094.94H1440.38C1430.14 1094.94 1423.21 1106.72 1423.21 1116.96C1423.21 1141.28 1403.49 1161 1379.17 1161H961.599C937.276 1161 917.558 1141.28 917.558 1116.96C917.558 1092.64 937.276 1072.92 961.599 1072.92H1028.1C1038.34 1072.92 1045.27 1061.14 1045.27 1050.9C1045.27 1041.73 1038.99 1031.74 1029.82 1031.74H1021.64C997.32 1031.74 977.603 1012.02 977.603 987.697C977.603 977.978 970.996 967.106 961.278 967.106H907.041C882.718 967.106 863 947.389 863 923.065C863 898.742 882.718 879.025 907.041 879.025H1053.63C1063.35 879.025 1069.96 868.153 1069.96 858.434C1069.96 854.814 1067.22 851.571 1063.6 851.571H1021.64C997.32 851.571 977.603 831.853 977.603 807.53C977.603 783.207 997.32 763.489 1021.64 763.489H1093.35C1103.39 763.489 1110.19 752.078 1110.19 742.041Z" fill="#9C2121"/>
<path fill-rule="evenodd" clip-rule="evenodd" d="M486.45 1057.1C486.662 1081.42 467.117 1101.31 442.795 1101.52L66.0795 1104.81C41.7574 1105.02 21.8684 1085.48 21.6561 1061.16C21.4439 1036.83 40.9888 1016.95 65.3109 1016.73L137.018 1016.11C147.055 1016.02 153.753 1004.55 153.665 994.513C153.634 990.893 150.866 987.674 147.246 987.705L105.295 988.071C80.9729 988.284 61.0839 968.739 60.8716 944.417C60.6593 920.094 80.2043 900.205 104.526 899.993C112.578 899.923 117.912 890.98 117.18 882.962C117.07 881.752 117.008 880.529 116.997 879.293C116.785 854.971 136.33 835.082 160.652 834.87L170.389 834.785C180.107 834.7 186.618 823.771 186.534 814.052C186.454 804.884 180.089 794.947 170.921 795.027L87.4621 795.756C63.14 795.968 43.2509 776.423 43.0387 752.101C42.8264 727.779 62.3713 707.89 86.6935 707.678L153.192 707.097C163.435 707.008 170.256 695.171 170.166 684.928C169.954 660.606 189.499 640.717 213.821 640.504L631.378 636.861C655.7 636.648 675.589 656.193 675.801 680.515C676.013 704.837 656.468 724.726 632.146 724.939L565.648 725.519C555.405 725.608 548.584 737.445 548.673 747.688C548.753 756.857 555.118 766.793 564.286 766.713L572.464 766.642C596.786 766.43 616.675 785.975 616.887 810.297C616.972 820.015 623.672 830.829 633.391 830.744L687.626 830.271C711.948 830.059 731.837 849.603 732.049 873.926C732.261 898.248 712.716 918.137 688.394 918.349L541.81 919.628C532.092 919.713 525.581 930.642 525.665 940.36C525.697 943.98 528.465 947.2 532.084 947.168L574.036 946.802C598.358 946.59 618.247 966.135 618.459 990.457C618.671 1014.78 599.127 1034.67 574.804 1034.88L503.097 1035.51C493.06 1035.59 486.362 1047.06 486.45 1057.1Z" fill="#9C2121"/>
<path fill-rule="evenodd" clip-rule="evenodd" d="M912.938 246.346C912.938 221.855 932.792 202 957.284 202C981.776 202 1001.63 221.855 1001.63 246.346C1001.63 255.788 1013.14 261.958 1022.52 260.877C1024.21 260.683 1025.92 260.583 1027.66 260.583C1052.15 260.583 1072 280.438 1072 304.93C1072 314.575 1084.39 320.819 1093.93 319.397C1096.08 319.076 1098.28 318.91 1100.53 318.91C1107.88 318.91 1115.31 313.719 1115.31 306.364V291.825C1115.31 267.334 1135.16 247.479 1159.65 247.479C1184.15 247.479 1204 267.334 1204 291.825V419.223C1204 443.715 1184.15 463.569 1159.65 463.569C1152.3 463.569 1144.87 468.76 1144.87 476.115V490.654C1144.87 515.145 1125.02 535 1100.53 535C1076.03 535 1056.18 515.145 1056.18 490.654C1056.18 481.009 1043.79 474.765 1034.25 476.187C1032.1 476.507 1029.9 476.674 1027.66 476.674C1003.16 476.674 983.309 456.819 983.309 432.327C983.309 422.886 971.795 416.716 962.415 417.797C960.732 417.991 959.02 418.09 957.284 418.09C951.367 418.09 945.72 416.931 940.559 414.828C937.301 413.5 933.342 415.705 933.342 419.223C933.342 443.715 913.487 463.569 888.995 463.569C878.518 463.569 868.89 459.936 861.301 453.861C850.344 445.089 829.745 437.875 815.709 437.875C806.167 437.875 796.049 442.306 789.573 449.314C781.471 458.08 769.875 463.569 756.997 463.569C732.505 463.569 712.651 443.715 712.651 419.223C712.651 415.273 706.503 413.304 703.547 415.926C695.72 422.868 685.419 427.083 674.134 427.083C662.429 427.083 647.693 434.968 647.693 446.673V481.661C647.693 506.152 627.838 526.007 603.346 526.007C578.855 526.007 559 506.152 559 481.661V354.263C559 329.771 578.855 309.917 603.346 309.917C615.051 309.917 629.788 302.032 629.788 290.327V255.339C629.788 230.848 649.642 210.993 674.134 210.993C698.626 210.993 718.48 230.848 718.48 255.339C718.48 259.29 724.628 261.258 727.584 258.637C735.411 251.695 745.712 247.479 756.997 247.479C766.539 247.479 776.657 243.048 783.134 236.04C791.235 227.274 802.831 221.785 815.709 221.785C826.186 221.785 835.815 225.418 843.403 231.493C854.36 240.265 874.959 247.479 888.995 247.479C894.913 247.479 900.559 248.638 905.72 250.741C908.979 252.069 912.938 249.865 912.938 246.346Z" fill="#D9D9D9"/>
<path fill-rule="evenodd" clip-rule="evenodd" d="M828.938 1269.35C828.938 1244.85 848.792 1225 873.284 1225C897.776 1225 917.631 1244.85 917.631 1269.35C917.631 1278.79 929.145 1284.96 938.524 1283.88C940.208 1283.68 941.92 1283.58 943.655 1283.58C968.147 1283.58 988.002 1303.44 988.002 1327.93C988.002 1337.57 1000.39 1343.82 1009.93 1342.4C1012.08 1342.08 1014.28 1341.91 1016.53 1341.91C1023.88 1341.91 1031.31 1336.72 1031.31 1329.36V1314.83C1031.31 1290.33 1051.16 1270.48 1075.65 1270.48C1100.15 1270.48 1120 1290.33 1120 1314.83V1442.22C1120 1466.71 1100.15 1486.57 1075.65 1486.57C1068.3 1486.57 1060.87 1491.76 1060.87 1499.11V1513.65C1060.87 1538.15 1041.02 1558 1016.53 1558C992.033 1558 972.179 1538.15 972.179 1513.65C972.179 1504.01 959.789 1497.76 950.25 1499.19C948.098 1499.51 945.896 1499.67 943.655 1499.67C919.164 1499.67 899.309 1479.82 899.309 1455.33C899.309 1445.89 887.795 1439.72 878.415 1440.8C876.732 1440.99 875.02 1441.09 873.284 1441.09C867.367 1441.09 861.72 1439.93 856.559 1437.83C853.301 1436.5 849.342 1438.7 849.342 1442.22C849.342 1466.71 829.487 1486.57 804.995 1486.57C794.518 1486.57 784.89 1482.94 777.301 1476.86C766.344 1468.09 745.745 1460.87 731.709 1460.87C722.167 1460.87 712.049 1465.31 705.573 1472.31C697.471 1481.08 685.875 1486.57 672.997 1486.57C648.505 1486.57 628.651 1466.71 628.651 1442.22C628.651 1438.27 622.503 1436.3 619.547 1438.93C611.72 1445.87 601.419 1450.08 590.134 1450.08C578.429 1450.08 563.693 1457.97 563.693 1469.67V1504.66C563.693 1529.15 543.838 1549.01 519.346 1549.01C494.855 1549.01 475 1529.15 475 1504.66V1377.26C475 1352.77 494.855 1332.92 519.346 1332.92C531.051 1332.92 545.788 1325.03 545.788 1313.33V1278.34C545.788 1253.85 565.642 1233.99 590.134 1233.99C614.626 1233.99 634.48 1253.85 634.48 1278.34C634.48 1282.29 640.628 1284.26 643.584 1281.64C651.411 1274.69 661.712 1270.48 672.997 1270.48C682.539 1270.48 692.657 1266.05 699.134 1259.04C707.235 1250.27 718.831 1244.78 731.709 1244.78C742.186 1244.78 751.815 1248.42 759.403 1254.49C770.36 1263.27 790.959 1270.48 804.995 1270.48C810.913 1270.48 816.559 1271.64 821.72 1273.74C824.979 1275.07 828.938 1272.86 828.938 1269.35Z" fill="#D9D9D9"/>
<g filter="url(#filter1_d_9_388)">
<rect x="1661.86" y="1113" width="813.56" height="98.5677" rx="49.2838" transform="rotate(-180 1661.86 1113)" fill="#CECCCC"/>
<rect x="1563.56" y="1050.28" width="813.56" height="98.5677" rx="49.2838" transform="rotate(-180 1563.56 1050.28)" fill="#CECCCC"/>
<rect x="1759" y="983.568" width="813.56" height="98.5677" rx="49.2838" transform="rotate(-180 1759 983.568)" fill="#CECCCC"/>
</g>
<g filter="url(#filter2_d_9_388)">
<rect x="33.1416" y="591" width="813.56" height="98.5677" rx="49.2838" fill="#B0AEAE"/>
<rect x="131.439" y="653.725" width="813.56" height="98.5677" rx="49.2838" fill="#B0AEAE"/>
<rect x="-64" y="720.432" width="813.56" height="98.5677" rx="49.2838" fill="#B0AEAE"/>
</g>
</g>
<circle cx="844" cy="855" r="468" fill="url(#paint0_linear_9_388)"/>
<defs>
<filter id="filter0_f_9_388" x="0" y="0" width="1688" height="1688" filterUnits="userSpaceOnUse" color-interpolation-filters="sRGB">
<feFlood flood-opacity="0" result="BackgroundImageFix"/>
<feBlend mode="normal" in="SourceGraphic" in2="BackgroundImageFix" result="shape"/>
<feGaussianBlur stdDeviation="119.5" result="effect1_foregroundBlur_9_388"/>
</filter>
<filter id="filter1_d_9_388" x="672" y="856" width="1087" height="294" filterUnits="userSpaceOnUse" color-interpolation-filters="sRGB">
<feFlood flood-opacity="0" result="BackgroundImageFix"/>
<feColorMatrix in="SourceAlpha" type="matrix" values="0 0 0 0 0 0 0 0 0 0 0 0 0 0 0 0 0 0 127 0" result="hardAlpha"/>
<feOffset dx="-45" dy="4"/>
<feGaussianBlur stdDeviation="16.5"/>
<feComposite in2="hardAlpha" operator="out"/>
<feColorMatrix type="matrix" values="0 0 0 0 0 0 0 0 0 0 0 0 0 0 0 0 0 0 0.25 0"/>
<feBlend mode="normal" in2="BackgroundImageFix" result="effect1_dropShadow_9_388"/>
<feBlend mode="normal" in="SourceGraphic" in2="effect1_dropShadow_9_388" result="shape"/>
</filter>
<filter id="filter2_d_9_388" x="-64" y="554" width="1098" height="310" filterUnits="userSpaceOnUse" color-interpolation-filters="sRGB">
<feFlood flood-opacity="0" result="BackgroundImageFix"/>
<feColorMatrix in="SourceAlpha" type="matrix" values="0 0 0 0 0 0 0 0 0 0 0 0 0 0 0 0 0 0 127 0" result="hardAlpha"/>
<feOffset dx="48" dy="4"/>
<feGaussianBlur stdDeviation="20.5"/>
<feComposite in2="hardAlpha" operator="out"/>
<feColorMatrix type="matrix" values="0 0 0 0 0 0 0 0 0 0 0 0 0 0 0 0 0 0 0.25 0"/>
<feBlend mode="normal" in2="BackgroundImageFix" result="effect1_dropShadow_9_388"/>
<feBlend mode="normal" in="SourceGraphic" in2="effect1_dropShadow_9_388" result="shape"/>
</filter>
<linearGradient id="paint0_linear_9_388" x1="1312" y1="387" x2="844" y2="387" gradientUnits="userSpaceOnUse">
<stop stop-color="#FF5C00" stop-opacity="0.2"/>
<stop offset="1"/>
</linearGradient>
</defs>
</svg>
